# xmcd
#
# Track frame offsets:
#	150
#	18755
#	37730
#	58658
#	74483
#	100290
#	123275
#	138540
#	158015
#	172165
#	187518
#	210238
#	226125
#	248455
#	271058
#	296385
#	321685
#
# Disc length: 4608 seconds
#
# Revision: 2
# Processed by: cddbd v1.5.2PL0 Copyright (c) Steve Scherf et al.
# Submitted via: EZCDAudioConverter 7.1.5.1
#
DISCID=df11fe11
DTITLE=Angela Bofill - The Definitive Collection
DYEAR=1999
DGENRE=R&B
TTITLE0=Something About You
TTITLE1=Baby, I Need Your Love
TTITLE2=Tell Me Tomorrow
TTITLE3=What I Wouldn't Do (For The Love Of You)
TTITLE4=Under The Moon And Over The Sky
TTITLE5=I'm On Your Side
TTITLE6=Holdin' Out For Love
TTITLE7=This Time I'll Be Sweeter
TTITLE8=Ain't Nothing Like The Real Thing
TTITLE9=Let Me Be The One
TTITLE10=Angel Of The Night
TTITLE11=Tonight I Give In
TTITLE12=Still In Love
TTITLE13=Can't Slow Down
TTITLE14=Too Tough
TTITLE15=I Try
TTITLE16=Time To Say Goodbye
EXTD=
EXTT0=
EXTT1=
EXTT2=
EXTT3=
EXTT4=
EXTT5=
EXTT6=
EXTT7=
EXTT8=
EXTT9=
EXTT10=
EXTT11=
EXTT12=
EXTT13=
EXTT14=
EXTT15=
EXTT16=
PLAYORDER=
